<?xml version="1.0" encoding="UTF-8" standalone="no"?>
<svg width="411px" height="111px" viewBox="0 0 411 111" version="1.1" xmlns="http://www.w3.org/2000/svg" xmlns:xlink="http://www.w3.org/1999/xlink">
    <g id="Page-1" stroke="none" stroke-width="1" fill="none" fill-rule="evenodd">
        <g id="Group" transform="translate(0.500000, 0.500000)">
            <rect id="Rectangle-path" stroke="#808080" fill="#FFFFFF" x="160" y="15" width="100" height="80"></rect>
            <g transform="translate(182.500000, 47.500000)" id="Runtime" font-size="14" font-family="Helvetica" fill="#000000" font-weight="normal">
                <g>
                    <text>
                        <tspan x="0.934570312" y="14">Runtime</tspan>
                    </text>
                </g>
            </g>
            <rect id="Rectangle-path" stroke="#808080" fill="#FFFFFF" x="0" y="0" width="70" height="30"></rect>
            <g transform="translate(19.500000, 6.500000)" id="Plan" font-size="14" font-family="Helvetica" fill="#000000" font-weight="normal">
                <g>
                    <text>
                        <tspan x="0.989746094" y="14">Plan</tspan>
                    </text>
                </g>
            </g>
            <rect id="Rectangle-path" stroke="#808080" fill="#FFFFFF" x="0" y="40" width="70" height="30"></rect>
            <g transform="translate(19.500000, 46.500000)" id="Plan" font-size="14" font-family="Helvetica" fill="#000000" font-weight="normal">
                <g>
                    <text>
                        <tspan x="0.989746094" y="14">Plan</tspan>
                    </text>
                </g>
            </g>
            <path d="M70,15 C100,15 115,21.6666667 115,35 C115,48.3333333 127.876667,55 153.63,55" id="Shape" stroke="#333333" stroke-dasharray="3"></path>
            <polygon id="Shape" stroke="#333333" fill="#333333" points="158.88 55 151.88 58.5 153.63 55 151.88 51.5"></polygon>
            <g transform="translate(89.500000, 16.500000)">
                <rect id="Rectangle" fill="#FFFFFF" x="1" y="3" width="39" height="13"></rect>
                <g id="add-to" font-size="14" font-family="Helvetica" fill="#000000" font-weight="normal">
                    <text>
                        <tspan x="0.5" y="14">add to</tspan>
                    </text>
                </g>
            </g>
            <path d="M70,55 L153.63,55" id="Shape" stroke="#333333" stroke-dasharray="3"></path>
            <polygon id="Shape" stroke="#333333" fill="#333333" points="158.88 55 151.88 58.5 153.63 55 151.88 51.5"></polygon>
            <rect id="Rectangle-path" stroke="#808080" fill="#FFFFFF" x="0" y="80" width="70" height="30"></rect>
            <g transform="translate(19.500000, 86.500000)" id="Plan" font-size="14" font-family="Helvetica" fill="#000000" font-weight="normal">
                <g>
                    <text>
                        <tspan x="0.989746094" y="14">Plan</tspan>
                    </text>
                </g>
            </g>
            <path d="M70,95 C100,95 115,88.3333333 115,75 C115,61.6666667 127.876667,55 153.63,55" id="Shape" stroke="#333333" stroke-dasharray="3"></path>
            <polygon id="Shape" stroke="#333333" fill="#333333" points="158.88 55 151.88 58.5 153.63 55 151.88 51.5"></polygon>
            <rect id="Rectangle" fill="#FFFFFF" x="87.5" y="85.5" width="46" height="13"></rect>
            <g transform="translate(89.500000, 81.500000)" id="add-to" font-size="14" font-family="Helvetica" fill="#000000" font-weight="normal">
                <g>
                    <text>
                        <tspan x="0.5" y="14">add to</tspan>
                    </text>
                </g>
            </g>
            <rect id="Rectangle-path" stroke="#808080" fill="#FFFFFF" x="330" y="18" width="80" height="30"></rect>
            <g transform="translate(337.500000, 25.500000)" id="Performer" font-size="14" font-family="Helvetica" fill="#000000" font-weight="normal">
                <g>
                    <text>
                        <tspan x="0.5" y="14">Performer</tspan>
                    </text>
                </g>
            </g>
            <rect id="Rectangle-path" stroke="#808080" fill="#FFFFFF" x="330" y="63" width="80" height="30"></rect>
            <g transform="translate(337.500000, 70.500000)" id="Performer" font-size="14" font-family="Helvetica" fill="#000000" font-weight="normal">
                <g>
                    <text>
                        <tspan x="0.5" y="14">Performer</tspan>
                    </text>
                </g>
            </g>
            <path d="M260,55 C283.333333,55 295,51.3333333 295,44 C295,36.6666667 304.543333,33 323.63,33" id="Shape" stroke="#333333" stroke-dasharray="3"></path>
            <polygon id="Shape" stroke="#333333" fill="#333333" points="328.88 33 321.88 36.5 323.63 33 321.88 29.5"></polygon>
            <path d="M260,55 C283.333333,55 295,58.8333333 295,66.5 C295,74.1666667 304.543333,78 323.63,78" id="Shape" stroke="#333333" stroke-dasharray="3"></path>
            <rect id="Rectangle" fill="#FFFFFF" x="87.5" y="48.5" width="46" height="13"></rect>
            <g transform="translate(89.500000, 46.500000)" id="add-to" font-size="14" font-family="Helvetica" fill="#000000" font-weight="normal">
                <g>
                    <text>
                        <tspan x="0.5" y="14">add to</tspan>
                    </text>
                </g>
            </g>
            <polygon id="Shape" stroke="#333333" fill="#333333" points="328.88 78 321.88 81.5 323.63 78 321.88 74.5"></polygon>
            <rect id="Rectangle-2" fill="#FFFFFF" x="266" y="49" width="48" height="12"></rect>
            <g transform="translate(267.500000, 45.500000)" id="creates" font-size="14" font-family="Helvetica" fill="#000000" font-weight="normal">
                <g>
                    <text>
                        <tspan x="0" y="14">creates</tspan>
                    </text>
                </g>
            </g>
        </g>
    </g>
</svg>